<mxfile host="app.diagrams.net" modified="2023-08-10T11:01:00.666Z" agent="Mozilla/5.0 (Windows NT 10.0; Win64; x64) AppleWebKit/537.36 (KHTML, like Gecko) Chrome/115.0.0.0 Safari/537.36" etag="gqNvCmQqpse9sx5OoX_Y" version="21.6.7" type="github">
  <diagram name="Page-1" id="UScII-_Q_ot3APFddnuS">
    <mxGraphModel dx="1434" dy="782" grid="1" gridSize="10" guides="1" tooltips="1" connect="1" arrows="1" fold="1" page="1" pageScale="1" pageWidth="850" pageHeight="1100" math="0" shadow="0">
      <root>
        <mxCell id="0" />
        <mxCell id="1" parent="0" />
        <mxCell id="b-tQPJfGgkMx1oq0Va0H-1" value="Region" style="points=[[0,0],[0.25,0],[0.5,0],[0.75,0],[1,0],[1,0.25],[1,0.5],[1,0.75],[1,1],[0.75,1],[0.5,1],[0.25,1],[0,1],[0,0.75],[0,0.5],[0,0.25]];outlineConnect=0;gradientColor=none;html=1;whiteSpace=wrap;fontSize=12;fontStyle=0;container=1;pointerEvents=0;collapsible=0;recursiveResize=0;shape=mxgraph.aws4.group;grIcon=mxgraph.aws4.group_region;strokeColor=#147EBA;fillColor=none;verticalAlign=top;align=left;spacingLeft=30;fontColor=#147EBA;dashed=1;perimeterSpacing=2;strokeWidth=2;" vertex="1" parent="1">
          <mxGeometry x="70" y="100" width="790" height="520" as="geometry" />
        </mxCell>
        <mxCell id="b-tQPJfGgkMx1oq0Va0H-2" value="Availability zone" style="sketch=0;outlineConnect=0;gradientColor=none;html=1;whiteSpace=wrap;fontSize=12;fontStyle=0;shape=mxgraph.aws4.group;grIcon=mxgraph.aws4.group_availability_zone;strokeColor=#545B64;fillColor=none;verticalAlign=top;align=left;spacingLeft=30;fontColor=#545B64;dashed=1;strokeWidth=1;" vertex="1" parent="b-tQPJfGgkMx1oq0Va0H-1">
          <mxGeometry x="90" width="140" height="520" as="geometry" />
        </mxCell>
        <mxCell id="b-tQPJfGgkMx1oq0Va0H-8" value="VPC" style="points=[[0,0],[0.25,0],[0.5,0],[0.75,0],[1,0],[1,0.25],[1,0.5],[1,0.75],[1,1],[0.75,1],[0.5,1],[0.25,1],[0,1],[0,0.75],[0,0.5],[0,0.25]];outlineConnect=0;gradientColor=none;html=1;whiteSpace=wrap;fontSize=12;fontStyle=0;container=1;pointerEvents=0;collapsible=0;recursiveResize=0;shape=mxgraph.aws4.group;grIcon=mxgraph.aws4.group_vpc;strokeColor=#248814;fillColor=none;verticalAlign=top;align=left;spacingLeft=30;fontColor=#AAB7B8;dashed=0;shadow=0;perimeterSpacing=2;strokeWidth=2;" vertex="1" parent="b-tQPJfGgkMx1oq0Va0H-1">
          <mxGeometry y="100" width="750" height="420" as="geometry" />
        </mxCell>
        <mxCell id="b-tQPJfGgkMx1oq0Va0H-11" value="Public subnet" style="points=[[0,0],[0.25,0],[0.5,0],[0.75,0],[1,0],[1,0.25],[1,0.5],[1,0.75],[1,1],[0.75,1],[0.5,1],[0.25,1],[0,1],[0,0.75],[0,0.5],[0,0.25]];outlineConnect=0;gradientColor=none;html=1;whiteSpace=wrap;fontSize=12;fontStyle=0;container=1;pointerEvents=0;collapsible=0;recursiveResize=0;shape=mxgraph.aws4.group;grIcon=mxgraph.aws4.group_security_group;grStroke=0;strokeColor=#248814;fillColor=#E9F3E6;verticalAlign=top;align=left;spacingLeft=30;fontColor=#248814;dashed=0;" vertex="1" parent="b-tQPJfGgkMx1oq0Va0H-8">
          <mxGeometry x="90" y="70" width="150" height="70" as="geometry" />
        </mxCell>
        <mxCell id="b-tQPJfGgkMx1oq0Va0H-13" value="Private subnet" style="points=[[0,0],[0.25,0],[0.5,0],[0.75,0],[1,0],[1,0.25],[1,0.5],[1,0.75],[1,1],[0.75,1],[0.5,1],[0.25,1],[0,1],[0,0.75],[0,0.5],[0,0.25]];outlineConnect=0;gradientColor=none;html=1;whiteSpace=wrap;fontSize=12;fontStyle=0;container=1;pointerEvents=0;collapsible=0;recursiveResize=0;shape=mxgraph.aws4.group;grIcon=mxgraph.aws4.group_security_group;grStroke=0;strokeColor=#147EBA;fillColor=#E6F2F8;verticalAlign=top;align=left;spacingLeft=30;fontColor=#147EBA;dashed=0;" vertex="1" parent="b-tQPJfGgkMx1oq0Va0H-8">
          <mxGeometry x="90" y="210" width="150" height="80" as="geometry" />
        </mxCell>
        <mxCell id="b-tQPJfGgkMx1oq0Va0H-20" value="" style="sketch=0;outlineConnect=0;fontColor=#232F3E;gradientColor=none;fillColor=#4D27AA;strokeColor=none;dashed=0;verticalLabelPosition=bottom;verticalAlign=top;align=center;html=1;fontSize=12;fontStyle=0;aspect=fixed;pointerEvents=1;shape=mxgraph.aws4.route_table;" vertex="1" parent="b-tQPJfGgkMx1oq0Va0H-8">
          <mxGeometry x="260" y="210" width="61.58" height="60" as="geometry" />
        </mxCell>
        <mxCell id="b-tQPJfGgkMx1oq0Va0H-21" value="" style="sketch=0;outlineConnect=0;fontColor=#232F3E;gradientColor=none;fillColor=#4D27AA;strokeColor=none;dashed=0;verticalLabelPosition=bottom;verticalAlign=top;align=center;html=1;fontSize=12;fontStyle=0;aspect=fixed;pointerEvents=1;shape=mxgraph.aws4.route_table;" vertex="1" parent="b-tQPJfGgkMx1oq0Va0H-8">
          <mxGeometry x="264.92" y="70" width="62" height="60.41" as="geometry" />
        </mxCell>
        <mxCell id="b-tQPJfGgkMx1oq0Va0H-35" value="" style="edgeStyle=segmentEdgeStyle;endArrow=classic;html=1;curved=0;rounded=0;endSize=8;startSize=8;" edge="1" parent="b-tQPJfGgkMx1oq0Va0H-8" source="b-tQPJfGgkMx1oq0Va0H-2">
          <mxGeometry width="50" height="50" relative="1" as="geometry">
            <mxPoint x="230" y="170" as="sourcePoint" />
            <mxPoint x="280" y="120" as="targetPoint" />
            <Array as="points">
              <mxPoint x="280" y="140" />
            </Array>
          </mxGeometry>
        </mxCell>
        <mxCell id="b-tQPJfGgkMx1oq0Va0H-43" value="" style="edgeStyle=segmentEdgeStyle;endArrow=classic;html=1;curved=0;rounded=0;endSize=8;startSize=8;" edge="1" parent="b-tQPJfGgkMx1oq0Va0H-8" source="b-tQPJfGgkMx1oq0Va0H-2">
          <mxGeometry width="50" height="50" relative="1" as="geometry">
            <mxPoint x="230" y="320" as="sourcePoint" />
            <mxPoint x="280" y="270" as="targetPoint" />
            <Array as="points">
              <mxPoint x="280" y="320" />
            </Array>
          </mxGeometry>
        </mxCell>
        <mxCell id="b-tQPJfGgkMx1oq0Va0H-16" value="Availability zone" style="sketch=0;outlineConnect=0;gradientColor=none;html=1;whiteSpace=wrap;fontSize=12;fontStyle=0;shape=mxgraph.aws4.group;grIcon=mxgraph.aws4.group_availability_zone;strokeColor=#545B64;fillColor=none;verticalAlign=top;align=left;spacingLeft=30;fontColor=#545B64;dashed=1;strokeWidth=1;" vertex="1" parent="b-tQPJfGgkMx1oq0Va0H-8">
          <mxGeometry x="370" y="-100" width="140" height="520" as="geometry" />
        </mxCell>
        <mxCell id="b-tQPJfGgkMx1oq0Va0H-18" value="Private subnet" style="points=[[0,0],[0.25,0],[0.5,0],[0.75,0],[1,0],[1,0.25],[1,0.5],[1,0.75],[1,1],[0.75,1],[0.5,1],[0.25,1],[0,1],[0,0.75],[0,0.5],[0,0.25]];outlineConnect=0;gradientColor=none;html=1;whiteSpace=wrap;fontSize=12;fontStyle=0;container=1;pointerEvents=0;collapsible=0;recursiveResize=0;shape=mxgraph.aws4.group;grIcon=mxgraph.aws4.group_security_group;grStroke=0;strokeColor=#147EBA;fillColor=#E6F2F8;verticalAlign=top;align=left;spacingLeft=30;fontColor=#147EBA;dashed=0;" vertex="1" parent="b-tQPJfGgkMx1oq0Va0H-8">
          <mxGeometry x="370" y="210" width="140" height="80" as="geometry" />
        </mxCell>
        <mxCell id="b-tQPJfGgkMx1oq0Va0H-57" style="edgeStyle=orthogonalEdgeStyle;rounded=0;orthogonalLoop=1;jettySize=auto;html=1;exitX=0.25;exitY=1;exitDx=0;exitDy=0;" edge="1" parent="b-tQPJfGgkMx1oq0Va0H-1" source="b-tQPJfGgkMx1oq0Va0H-19" target="b-tQPJfGgkMx1oq0Va0H-21">
          <mxGeometry relative="1" as="geometry" />
        </mxCell>
        <mxCell id="b-tQPJfGgkMx1oq0Va0H-19" value="Public subnet" style="points=[[0,0],[0.25,0],[0.5,0],[0.75,0],[1,0],[1,0.25],[1,0.5],[1,0.75],[1,1],[0.75,1],[0.5,1],[0.25,1],[0,1],[0,0.75],[0,0.5],[0,0.25]];outlineConnect=0;gradientColor=none;html=1;whiteSpace=wrap;fontSize=12;fontStyle=0;container=1;pointerEvents=0;collapsible=0;recursiveResize=0;shape=mxgraph.aws4.group;grIcon=mxgraph.aws4.group_security_group;grStroke=0;strokeColor=#248814;fillColor=#E9F3E6;verticalAlign=top;align=left;spacingLeft=30;fontColor=#248814;dashed=0;" vertex="1" parent="b-tQPJfGgkMx1oq0Va0H-1">
          <mxGeometry x="370" y="160" width="140" height="70" as="geometry" />
        </mxCell>
        <mxCell id="b-tQPJfGgkMx1oq0Va0H-22" value="" style="sketch=0;outlineConnect=0;fontColor=#232F3E;gradientColor=none;fillColor=#4D27AA;strokeColor=none;dashed=0;verticalLabelPosition=bottom;verticalAlign=top;align=center;html=1;fontSize=12;fontStyle=0;aspect=fixed;pointerEvents=1;shape=mxgraph.aws4.internet_gateway;" vertex="1" parent="b-tQPJfGgkMx1oq0Va0H-1">
          <mxGeometry x="270" y="58" width="62" height="62" as="geometry" />
        </mxCell>
        <mxCell id="b-tQPJfGgkMx1oq0Va0H-55" style="edgeStyle=orthogonalEdgeStyle;rounded=0;orthogonalLoop=1;jettySize=auto;html=1;" edge="1" parent="b-tQPJfGgkMx1oq0Va0H-1" source="b-tQPJfGgkMx1oq0Va0H-21" target="b-tQPJfGgkMx1oq0Va0H-22">
          <mxGeometry relative="1" as="geometry" />
        </mxCell>
        <mxCell id="b-tQPJfGgkMx1oq0Va0H-10" value="10.0.0.0/16" style="text;html=1;align=center;verticalAlign=middle;resizable=0;points=[];autosize=1;strokeColor=none;fillColor=none;" vertex="1" parent="1">
          <mxGeometry x="80" y="158" width="80" height="30" as="geometry" />
        </mxCell>
      </root>
    </mxGraphModel>
  </diagram>
</mxfile>
